<svg height="512" viewBox="0 0 512 512" width="512" xmlns="http://www.w3.org/2000/svg"><g fill="#57a4ff"><path d="m112 266h1.03l-.54.19z"/><path d="m256 320.91v.09l-28.8-11z"/><path d="m400 266h-144v-218z"/><path d="m496 440h-240v-48h187.64z"/><path d="m256 352v40h-187.64l43.64-40z"/><path d="m16 440h480v32h-480z"/><path d="m112.49 266.19 114.71 43.81-115.2-43.64z"/><path d="m400 266.36-144 54.55v-104.91l142.97 50z"/><path d="m400 266-144-50v-168z"/></g><path d="m503.979 440.011a7.984 7.984 0 0 0 -2.573-5.908l-96-88a8 8 0 0 0 -5.406-2.103h-288a8 8 0 0 0 -5.406 2.1l-96 88a7.984 7.984 0 0 0 -2.573 5.908l-.021-.008v32a8 8 0 0 0 8 8h480a8 8 0 0 0 8-8v-32zm-239.979-80.011h132.888l26.182 24h-159.07zm0 40h176c.168 0 .332-.015.5-.025l34.934 32.025h-211.434zm-148.888-40h132.888v24h-159.07zm-43.612 39.975c.165.01.329.025.5.025h176v32h-211.434zm416.5 64.025h-464v-16h464z" fill="#004fac"/><path d="m104 264.163a8 8 0 0 0 5.073 7.647l144 56.545a8 8 0 0 0 5.832.007l144-56.182a8 8 0 0 0 5.09-7.636c0-.01 0-.02 0-.03a7.961 7.961 0 0 0 -1.335-4.583l-144-216.364a8 8 0 0 0 -6.66-3.567 8 8 0 0 0 -6.656 3.562l-144 216a7.958 7.958 0 0 0 -1.339 4.583zm152.01 48.155-120.629-47.368 112.619-37.824v20.16a8 8 0 0 0 16 0v-20.133l112.62 38.108zm-.016-249.887 124.659 187.3-116.653-39.47v-90.261a8 8 0 0 0 -16 0v90.248l-116.675 39.186z" fill="#004fac"/><path d="m256 263.857a8 8 0 0 0 -8 8v8a8 8 0 0 0 16 0v-8a8 8 0 0 0 -8-8z" fill="#004fac"/></svg>